<svg width="702" height="513" viewBox="0 0 702 513" fill="none" xmlns="http://www.w3.org/2000/svg">
<g opacity="0.5">
<path d="M153.549 0.402658C145.171 1.08734 135.868 3.06082 127.571 5.96065C121.409 8.09525 112.226 12.1228 110.696 13.3311C110.172 13.7741 109.568 14.0963 109.326 14.0963C108.803 14.0963 99.9421 19.4529 96.7603 21.7083C93.5786 23.9638 89.3899 27.0247 87.5775 28.4343C86.8526 28.9982 86.4095 29.6426 86.5304 29.8842C86.7317 30.1662 86.6109 30.2064 86.329 30.0051C85.8054 29.6829 83.7514 31.3342 84.0736 31.8175C84.1944 31.9786 83.9527 32.3813 83.5903 32.6632C83.107 33.066 83.0264 33.066 83.2278 32.7035C84.0333 31.3744 82.4223 32.623 78.1128 36.6908C74.5283 40.0739 73.4811 41.2822 73.8839 41.5641C74.2867 41.8863 74.2464 41.9266 73.7228 41.7655C72.9576 41.5238 72.0312 42.3696 72.5145 42.8932C72.6756 43.0946 72.5951 43.0946 72.3534 42.9737C72.1118 42.8126 70.6619 44.0209 69.1717 45.6319C67.6412 47.2027 65.708 49.297 64.7817 50.2636C63.4526 51.7135 63.2512 52.076 63.7345 52.4385C64.2581 52.7607 64.2581 52.8009 63.6942 52.6398C63.0095 52.3982 61.5596 53.7675 58.6195 57.3923C56.4849 60.0505 51.1283 67.2195 48.7118 70.7235C47.6243 72.2539 45.6911 75.033 44.362 76.8856L41.9858 80.2687C41.9858 80.2687 3.32141 129.435 0.300755 179.88C-2.7199 230.325 41.9858 271.255 41.9858 271.255C44.8453 273.993 55.0753 283.458 55.0753 283.458C55.0753 283.458 65.8691 291.433 67.1579 292.158C66.3927 291.674 67.8426 292.52 67.1579 292.158C67.9231 292.601 76.6226 296.91 78.3947 297.675C77.9517 297.474 80.1669 298.4 78.3947 297.675C82.0598 299.729 93.1355 301.058 99.7004 300.213C106.104 299.407 112.387 293.849 115.851 285.995C116.656 284.183 117.301 282.371 117.301 281.968C117.301 281.565 117.542 281.001 117.865 280.76C118.187 280.478 118.469 279.954 118.428 279.592C118.428 279.229 119.073 277.175 119.838 275.081C121.53 270.651 125.96 257.923 126.282 256.756C126.484 256.031 129.867 246.324 130.471 244.874C131.236 242.86 134.337 234 134.579 232.993C134.74 232.308 135.747 229.328 136.794 226.348C137.841 223.367 138.727 220.709 138.808 220.508C138.848 220.266 138.969 219.904 139.09 219.702C139.211 219.46 139.533 218.494 139.815 217.487C140.097 216.48 140.499 215.312 140.66 214.869C140.862 214.426 141.224 213.339 141.506 212.453C141.748 211.567 142.231 210.197 142.513 209.392C143.842 205.606 148.434 191.912 149.481 188.489C150.125 186.394 151.132 183.374 151.736 181.843C152.3 180.273 153.065 178.098 153.388 177.01C153.71 175.883 154.153 174.634 154.354 174.191C154.676 173.466 155.603 170.405 157.334 164.323C158.221 161.343 161.161 153.328 161.483 153.087C161.684 152.966 161.845 152.563 161.926 152.241C162.047 151.717 166.598 137.661 167.162 136.131C167.283 135.809 167.403 135.446 167.444 135.325C167.685 134.641 168.249 133.15 169.296 130.613C169.941 129.002 170.464 127.472 170.464 127.19C170.464 126.908 170.706 126.183 171.028 125.619C171.31 125.015 171.954 123.283 172.478 121.793C172.961 120.262 173.485 118.651 173.686 118.208C173.847 117.765 174.693 115.51 175.499 113.174C176.304 110.838 177.714 106.931 178.6 104.515C179.486 102.058 181.459 96.4595 182.95 92.0292C187.098 79.7854 190.562 69.9583 191.005 69.193C191.206 68.7903 191.407 68.1861 191.407 67.8639C191.407 67.5417 191.569 66.9376 191.81 66.5348C192.012 66.1724 192.737 64.1989 193.381 62.2254C194.025 60.2116 196.039 54.3314 197.852 49.1359C199.664 43.9403 201.315 39.1073 201.517 38.3823C201.718 37.6574 202.08 36.9727 202.322 36.8519C202.523 36.6908 202.604 36.2075 202.443 35.7242C202.322 35.2409 202.322 34.9992 202.523 35.1603C202.765 35.402 205.584 27.6288 206.068 25.3734C206.148 25.0512 206.309 24.4873 206.43 24.1651C207.236 22.1111 207.437 19.9362 207.195 16.0698C207.075 14.6199 203.933 11.3978 200.832 9.54517C196.281 6.80644 188.347 3.70524 187.179 4.18854C186.856 4.30937 186.574 4.26909 186.574 4.06771C186.574 3.54413 179.164 1.69147 174.331 1.00679C168.813 0.241557 159.066 -0.040371 153.549 0.402658ZM47.423 74.5094C47.5438 74.7107 47.4632 74.9121 47.2619 74.9121C47.0202 74.9121 46.8188 74.7107 46.8188 74.5094C46.8188 74.2677 46.8994 74.1066 46.9799 74.1066C47.1008 74.1066 47.3021 74.2677 47.423 74.5094Z" fill="#8F2C2C" fill-opacity="0.8"/>
<path d="M548.526 0.402658C556.903 1.08734 566.206 3.06082 574.503 5.96065C580.665 8.09525 589.848 12.1228 591.379 13.3311C591.902 13.7741 592.506 14.0963 592.748 14.0963C593.272 14.0963 602.132 19.4529 605.314 21.7083C608.496 23.9638 612.684 27.0247 614.497 28.4343C615.222 28.9982 615.665 29.6426 615.544 29.8842C615.342 30.1662 615.463 30.2064 615.745 30.0051C616.269 29.6829 618.323 31.3342 618.001 31.8175C617.88 31.9786 618.121 32.3813 618.484 32.6632C618.967 33.066 619.048 33.066 618.846 32.7035C618.041 31.3744 619.652 32.623 623.961 36.6908C627.546 40.0739 628.593 41.2822 628.19 41.5641C627.788 41.8863 627.828 41.9266 628.351 41.7655C629.117 41.5238 630.043 42.3696 629.56 42.8932C629.399 43.0946 629.479 43.0946 629.721 42.9737C629.962 42.8126 631.412 44.0209 632.903 45.6319C634.433 47.2027 636.366 49.297 637.293 50.2636C638.622 51.7135 638.823 52.076 638.34 52.4385C637.816 52.7607 637.816 52.8009 638.38 52.6398C639.065 52.3982 640.515 53.7675 643.455 57.3923C645.589 60.0505 650.946 67.2195 653.362 70.7235C654.45 72.2539 656.383 75.033 657.712 76.8856L660.088 80.2687C660.088 80.2687 698.753 129.435 701.773 179.88C704.794 230.325 660.088 271.255 660.088 271.255C657.229 273.993 646.999 283.458 646.999 283.458C646.999 283.458 636.205 291.433 634.916 292.158C635.682 291.674 634.232 292.52 634.916 292.158C634.151 292.601 625.452 296.91 623.679 297.675C624.123 297.474 621.907 298.4 623.679 297.675C620.014 299.729 608.939 301.058 602.374 300.213C595.97 299.407 589.687 293.849 586.223 285.995C585.418 284.183 584.773 282.371 584.773 281.968C584.773 281.565 584.532 281.001 584.21 280.76C583.887 280.478 583.605 279.954 583.646 279.592C583.646 279.229 583.001 277.175 582.236 275.081C580.545 270.651 576.114 257.923 575.792 256.756C575.591 256.031 572.208 246.324 571.603 244.874C570.838 242.86 567.737 234 567.495 232.993C567.334 232.308 566.327 229.328 565.28 226.348C564.233 223.367 563.347 220.709 563.266 220.508C563.226 220.266 563.105 219.904 562.984 219.702C562.864 219.46 562.541 218.494 562.26 217.487C561.978 216.48 561.575 215.312 561.414 214.869C561.212 214.426 560.85 213.339 560.568 212.453C560.326 211.567 559.843 210.197 559.561 209.392C558.232 205.606 553.641 191.912 552.593 188.489C551.949 186.394 550.942 183.374 550.338 181.843C549.774 180.273 549.009 178.098 548.687 177.01C548.364 175.883 547.921 174.634 547.72 174.191C547.398 173.466 546.472 170.405 544.74 164.323C543.854 161.343 540.914 153.328 540.591 153.087C540.39 152.966 540.229 152.563 540.148 152.241C540.028 151.717 535.476 137.661 534.913 136.131C534.792 135.809 534.671 135.446 534.631 135.325C534.389 134.641 533.825 133.15 532.778 130.613C532.134 129.002 531.61 127.472 531.61 127.19C531.61 126.908 531.368 126.183 531.046 125.619C530.764 125.015 530.12 123.283 529.596 121.793C529.113 120.262 528.589 118.651 528.388 118.208C528.227 117.765 527.381 115.51 526.576 113.174C525.77 110.838 524.36 106.931 523.474 104.515C522.588 102.058 520.615 96.4595 519.125 92.0292C514.976 79.7854 511.513 69.9583 511.07 69.193C510.868 68.7903 510.667 68.1861 510.667 67.8639C510.667 67.5417 510.506 66.9376 510.264 66.5348C510.063 66.1724 509.338 64.1989 508.693 62.2254C508.049 60.2116 506.035 54.3314 504.223 49.1359C502.41 43.9403 500.759 39.1073 500.558 38.3823C500.356 37.6574 499.994 36.9727 499.752 36.8519C499.551 36.6908 499.47 36.2075 499.631 35.7242C499.752 35.2409 499.752 34.9992 499.551 35.1603C499.309 35.402 496.49 27.6288 496.007 25.3734C495.926 25.0512 495.765 24.4873 495.644 24.1651C494.839 22.1111 494.637 19.9362 494.879 16.0698C495 14.6199 498.141 11.3978 501.242 9.54517C505.793 6.80644 513.728 3.70524 514.896 4.18854C515.218 4.30937 515.5 4.26909 515.5 4.06771C515.5 3.54413 522.91 1.69147 527.744 1.00679C533.261 0.241557 543.008 -0.040371 548.526 0.402658ZM654.651 74.5094C654.53 74.7107 654.611 74.9121 654.812 74.9121C655.054 74.9121 655.255 74.7107 655.255 74.5094C655.255 74.2677 655.175 74.1066 655.094 74.1066C654.973 74.1066 654.772 74.2677 654.651 74.5094Z" fill="#317D6B" fill-opacity="0.8"/>
<path d="M329.752 16.835C328.182 17.8419 327.094 19.0904 325.725 21.5472C319.482 32.7438 313.884 39.3892 305.185 45.9139C295.68 53.0829 281.261 56.8688 268.534 55.5799C255.606 54.2911 244.933 50.0622 235.428 42.4904C232.367 40.0336 229.507 38.8657 227.413 39.1879C224.191 39.7114 221.412 42.6918 220.928 46.1152C220.606 48.5318 222.177 51.7941 224.755 53.9287C230.031 58.359 241.429 64.7225 248.598 67.2195C256.774 70.0388 264.305 71.2874 273.286 71.2874C289.88 71.2874 304.057 66.5751 316.462 56.9493C324.356 50.8275 333.377 40.1142 337.767 31.6161C341.07 25.2929 341.352 22.0305 338.935 19.0099C337.405 17.117 335.955 16.392 333.176 16.2309C331.484 16.1101 330.679 16.2712 329.752 16.835Z" fill="#2C548F"/>
<path d="M367.05 16.5534C365.157 17.3186 363.747 18.6477 362.741 20.6212C361.895 22.3127 361.774 22.9571 361.975 24.6084C362.338 27.3472 364.311 31.1733 368.379 37.2146C373.011 44.1017 374.259 45.5919 380.26 51.5527C390.49 61.6618 402.815 68.0656 416.75 70.4821C422.912 71.5293 434.391 71.6501 440.029 70.6835C451.709 68.6697 463.147 64.1991 472.33 57.9967C479.579 53.1234 481.191 51.0291 481.15 46.6793C481.15 43.7392 480.425 42.3296 477.928 40.4367C474.948 38.141 471.766 38.7854 466.893 42.6115C465.443 43.7392 463.832 44.9878 463.268 45.4308C461.456 46.8404 455.092 50.1833 451.387 51.6735C444.339 54.533 437.613 55.7413 428.631 55.701C414.494 55.701 403.66 51.5929 392.746 42.1282C387.711 37.7785 381.509 29.7234 377.723 22.6752C376.354 20.1781 373.736 17.3991 371.964 16.6742C370.473 16.0298 368.46 15.9895 367.05 16.5534Z" fill="#2C548F"/>
<path d="M339.217 299.649C321.697 300.736 306.594 304.482 298.056 309.839C294.149 312.255 289.558 317.088 288.027 320.351C284.201 328.567 284.886 337.709 290.041 348.181C299.707 367.674 324.678 387.812 342.036 390.107L344.05 390.389L343.97 417.978L343.849 445.607L337.808 446.533C330.558 447.661 326.933 448.547 320.972 450.762C300.754 458.173 281.784 472.873 263.419 495.387C258.868 500.986 258.264 502.073 258.264 505.013C258.264 506.987 258.465 507.631 259.472 509C261.768 512.222 265.795 513.229 269.299 511.497C270.709 510.813 272.199 509.242 276.468 503.926C294.391 481.452 316.139 466.349 336.277 462.362C347.997 460.066 358.147 460.307 369.424 463.127C381.104 466.027 393.871 472.753 404.262 481.452C412.116 488.017 421.46 497.602 426.776 504.409C432.334 511.618 433.582 512.545 437.247 512.222C441.476 511.86 444.336 508.718 444.336 504.409C444.336 501.992 443.289 500.14 438.979 494.985C414.854 466.147 392.502 451.366 365.839 446.654C363.302 446.211 360.644 445.849 359.878 445.849H358.549V418.139V390.389L361.288 389.906C368.014 388.658 374.7 385.717 382.715 380.361C395.804 371.661 406.276 360.304 412.76 347.778C416.586 340.408 417.915 331.869 416.345 325.063C414.734 318.337 409.417 312.255 401.523 308.187C398.905 306.818 393.71 304.683 391.978 304.281C391.656 304.16 390.367 303.838 389.159 303.475C384.406 302.146 376.432 300.817 368.658 300.052C362.859 299.488 345.339 299.246 339.217 299.649Z" fill="#2C548F" fill-opacity="0.85"/>
<path d="M471.576 374.521C473.992 375.608 475.16 377.461 475.16 380.199C475.16 382.978 474.113 384.589 471.495 385.838C465.615 388.698 460.218 382.374 463.682 376.696C464.568 375.205 467.145 373.755 468.797 373.755C469.401 373.755 470.649 374.118 471.576 374.521Z" fill="#317D6B" fill-opacity="0.8"/>
<path d="M437.705 392.282C439.477 393.007 441.531 396.31 441.531 398.404C441.531 398.887 441.169 400.015 440.726 400.901C438.551 405.371 432.791 405.613 429.69 401.425C428.401 399.693 428.522 396.108 429.851 394.417C430.415 393.732 431.342 392.886 431.946 392.524C433.073 391.839 436.336 391.678 437.705 392.282Z" fill="#317D6B" fill-opacity="0.8"/>
<path d="M453.413 424.623C455.266 425.469 457.078 427.765 457.4 429.698C457.964 433.403 454.863 437.149 451.238 437.149C446.284 437.149 443.223 431.873 445.68 427.563C447.211 424.865 450.835 423.496 453.413 424.623Z" fill="#317D6B" fill-opacity="0.8"/>
<path d="M411.765 427.845C416.437 430.946 414.826 438.679 409.308 439.605C407.013 440.008 403.629 438.357 402.703 436.424C401.696 434.289 401.857 431.43 403.106 429.577C404.959 426.878 409.067 426.033 411.765 427.845Z" fill="#317D6B" fill-opacity="0.8"/>
<path d="M485.632 439.968C489.7 441.781 490.545 447.379 487.203 450.561C484.061 453.501 479.389 452.574 477.375 448.627C474.637 443.271 480.114 437.511 485.632 439.968Z" fill="#317D6B" fill-opacity="0.8"/>
<path d="M228.534 374.521C226.117 375.608 224.949 377.461 224.949 380.199C224.949 382.978 225.996 384.589 228.614 385.838C234.494 388.698 239.891 382.374 236.428 376.696C235.542 375.205 232.964 373.755 231.313 373.755C230.709 373.755 229.46 374.118 228.534 374.521Z" fill="#8F2C2C" fill-opacity="0.8"/>
<path d="M262.404 392.282C260.632 393.007 258.578 396.31 258.578 398.404C258.578 398.887 258.941 400.015 259.384 400.901C261.559 405.371 267.318 405.613 270.419 401.425C271.708 399.693 271.587 396.108 270.258 394.417C269.694 393.732 268.768 392.886 268.164 392.524C267.036 391.839 263.774 391.678 262.404 392.282Z" fill="#8F2C2C" fill-opacity="0.8"/>
<path d="M246.698 424.623C244.846 425.469 243.033 427.765 242.711 429.698C242.147 433.403 245.248 437.149 248.873 437.149C253.827 437.149 256.888 431.873 254.431 427.563C252.901 424.865 249.276 423.496 246.698 424.623Z" fill="#8F2C2C" fill-opacity="0.8"/>
<path d="M288.342 427.845C283.67 430.947 285.281 438.679 290.799 439.606C293.095 440.008 296.478 438.357 297.404 436.424C298.411 434.289 298.25 431.43 297.002 429.577C295.149 426.879 291.041 426.033 288.342 427.845Z" fill="#8F2C2C" fill-opacity="0.8"/>
<path d="M214.478 439.968C210.41 441.781 209.564 447.379 212.907 450.561C216.048 453.501 220.72 452.574 222.734 448.627C225.473 443.271 219.995 437.511 214.478 439.968Z" fill="#8F2C2C" fill-opacity="0.8"/>
<path d="M217.183 300.706C217.183 300.706 211.746 298.894 207.668 292.853C202.469 285.15 202.08 276.994 202.08 276.994" stroke="#2C548F" stroke-opacity="0.85" stroke-width="6.64544" stroke-linecap="round"/>
<path d="M186.835 267.438C186.271 272.594 186.553 282.743 187.358 287.455C189.171 297.766 194.004 307.351 200.73 313.836C203.025 316.051 205.24 317.662 210.154 320.683C218.209 325.677 232.346 326.16 241.972 321.81C245.516 320.199 251.879 315.849 255.303 312.627C259.572 308.64 263.881 301.511 265.976 294.866C266.419 293.577 266.741 292.208 266.741 291.886C266.741 291.563 266.862 291.362 266.983 291.483C267.667 292.208 264.163 306.143 262.673 308.6C262.23 309.325 261.948 310.09 262.109 310.332C262.23 310.533 262.19 310.735 261.988 310.735C261.787 310.735 261.384 311.218 261.062 311.822C257.397 319.112 254.095 322.938 248.013 326.925C242.616 330.429 240.602 331.396 236.333 332.524C233.192 333.369 231.822 333.49 225.861 333.45C220.384 333.45 218.692 333.289 217.444 332.765C216.598 332.403 215.591 332.08 215.229 332.08C214.383 332.08 210.557 330.51 208.744 329.422C207.979 328.979 206.529 328.174 205.522 327.65C202.623 326.2 198.958 323.019 196.219 319.515C194.809 317.742 193.4 316.011 193.077 315.688C191.869 314.44 188.325 307.472 187.761 305.297C185.183 295.188 184.861 293.094 184.861 285.764C184.861 279.642 186.23 265.827 186.875 265.223C186.996 265.103 186.996 266.109 186.835 267.438Z" fill="#2C548F" fill-opacity="0.85"/>
<path fill-rule="evenodd" clip-rule="evenodd" d="M406.481 241.2C384.018 228.688 368.822 204.699 368.822 177.162C368.822 136.706 401.618 103.911 442.073 103.911C482.528 103.911 515.324 136.706 515.324 177.162C515.324 204.699 500.128 228.688 477.665 241.2C467.127 235.331 454.991 231.987 442.073 231.987C429.155 231.987 417.019 235.331 406.481 241.2ZM441.92 223.226C415.729 223.226 394.496 201.994 394.496 175.802C394.496 149.611 415.729 128.378 441.92 128.378C468.112 128.378 489.345 149.611 489.345 175.802C489.345 201.994 468.112 223.226 441.92 223.226ZM467.596 181.844C459.588 181.844 453.097 175.352 453.097 167.344C453.097 159.337 459.588 152.845 467.596 152.845C475.603 152.845 482.095 159.337 482.095 167.344C482.095 175.352 475.603 181.844 467.596 181.844Z" fill="#2C548F" fill-opacity="0.85"/>
<path fill-rule="evenodd" clip-rule="evenodd" d="M441.92 223.227C415.729 223.227 394.496 201.994 394.496 175.802C394.496 149.611 415.729 128.378 441.92 128.378C468.112 128.378 489.345 149.611 489.345 175.802C489.345 201.994 468.112 223.227 441.92 223.227ZM467.596 181.844C459.588 181.844 453.097 175.352 453.097 167.345C453.097 159.337 459.588 152.846 467.596 152.846C475.604 152.846 482.095 159.337 482.095 167.345C482.095 175.352 475.604 181.844 467.596 181.844Z" fill="#798FAF" fill-opacity="0.5"/>
<path fill-rule="evenodd" clip-rule="evenodd" d="M331.359 177.16C331.359 204.698 316.164 228.686 293.7 241.198C283.174 235.335 271.051 231.992 258.148 231.985C256.921 228.908 255.619 225.929 254.27 223.06C255.585 223.17 256.916 223.226 258.26 223.226C284.452 223.226 305.685 201.993 305.685 175.801C305.685 149.61 284.452 128.377 258.26 128.377C232.069 128.377 210.836 149.61 210.836 175.801C210.836 183.492 212.667 190.755 215.916 197.179C211.179 203.912 205.701 212.639 200.813 222.804C190.826 210.284 184.857 194.419 184.857 177.16C184.857 136.705 217.653 103.909 258.108 103.909C298.564 103.909 331.359 136.705 331.359 177.16ZM247.084 167.646C247.084 175.653 240.593 182.145 232.585 182.145C224.577 182.145 218.086 175.653 218.086 167.646C218.086 159.638 224.577 153.147 232.585 153.147C240.593 153.147 247.084 159.638 247.084 167.646Z" fill="#2C548F" fill-opacity="0.85"/>
<path fill-rule="evenodd" clip-rule="evenodd" d="M305.688 175.802C305.688 201.994 284.456 223.226 258.264 223.226C256.919 223.226 255.587 223.17 254.271 223.06C242.744 198.553 227.814 182.145 227.814 182.145C227.814 182.145 222.603 187.677 215.919 197.177C212.67 190.754 210.84 183.492 210.84 175.802C210.84 149.61 232.072 128.378 258.264 128.378C284.456 128.378 305.688 149.61 305.688 175.802ZM247.088 167.646C247.088 175.654 240.596 182.145 232.589 182.145C224.581 182.145 218.089 175.654 218.089 167.646C218.089 159.639 224.581 153.147 232.589 153.147C240.596 153.147 247.088 159.639 247.088 167.646Z" fill="#798FAF" fill-opacity="0.5"/>
</g>
</svg>
